<mxfile host="app.diagrams.net" agent="Mozilla/5.0 (Windows NT 10.0; Win64; x64) AppleWebKit/537.36 (KHTML, like Gecko) Chrome/141.0.0.0 Safari/537.36" version="28.2.7">
  <diagram name="Page-1" id="1JZGMNmJE-IETViBg10o">
    <mxGraphModel dx="872" dy="473" grid="1" gridSize="10" guides="1" tooltips="1" connect="1" arrows="1" fold="1" page="1" pageScale="1" pageWidth="827" pageHeight="1169" math="0" shadow="0">
      <root>
        <mxCell id="0" />
        <mxCell id="1" parent="0" />
        <mxCell id="8S2gTdQgeX6atO9v7Wgu-4" value="" style="edgeStyle=orthogonalEdgeStyle;rounded=0;orthogonalLoop=1;jettySize=auto;html=1;" parent="1" source="avvIacJ8UEr51rkEN6Sf-2" target="8S2gTdQgeX6atO9v7Wgu-1" edge="1">
          <mxGeometry relative="1" as="geometry" />
        </mxCell>
        <mxCell id="avvIacJ8UEr51rkEN6Sf-2" value="&lt;font face=&quot;Times New Roman&quot;&gt;Initialize Parameters&lt;/font&gt;" style="rounded=1;whiteSpace=wrap;html=1;fillColor=#f8cecc;strokeColor=#b85450;" parent="1" vertex="1">
          <mxGeometry x="280" y="115" width="120" height="60" as="geometry" />
        </mxCell>
        <mxCell id="8S2gTdQgeX6atO9v7Wgu-2" value="" style="edgeStyle=orthogonalEdgeStyle;rounded=0;orthogonalLoop=1;jettySize=auto;html=1;" parent="1" source="avvIacJ8UEr51rkEN6Sf-3" target="avvIacJ8UEr51rkEN6Sf-5" edge="1">
          <mxGeometry relative="1" as="geometry" />
        </mxCell>
        <mxCell id="avvIacJ8UEr51rkEN6Sf-3" value="&lt;font face=&quot;Times New Roman&quot;&gt;Update Membership Value&lt;/font&gt;" style="rounded=1;whiteSpace=wrap;html=1;fillColor=#f8cecc;strokeColor=#b85450;" parent="1" vertex="1">
          <mxGeometry x="450" y="220" width="120" height="60" as="geometry" />
        </mxCell>
        <mxCell id="avvIacJ8UEr51rkEN6Sf-23" value="" style="edgeStyle=orthogonalEdgeStyle;rounded=0;orthogonalLoop=1;jettySize=auto;html=1;" parent="1" source="avvIacJ8UEr51rkEN6Sf-4" target="avvIacJ8UEr51rkEN6Sf-2" edge="1">
          <mxGeometry relative="1" as="geometry" />
        </mxCell>
        <mxCell id="avvIacJ8UEr51rkEN6Sf-4" value="&lt;font face=&quot;Times New Roman&quot;&gt;Start&lt;/font&gt;" style="ellipse;whiteSpace=wrap;html=1;aspect=fixed;fillColor=#d5e8d4;strokeColor=#82b366;" parent="1" vertex="1">
          <mxGeometry x="180" y="115" width="60" height="60" as="geometry" />
        </mxCell>
        <mxCell id="avvIacJ8UEr51rkEN6Sf-5" value="&lt;font face=&quot;Times New Roman&quot;&gt;Evaluate Objective Function&lt;/font&gt;" style="rounded=1;whiteSpace=wrap;html=1;fillColor=#f8cecc;strokeColor=#b85450;" parent="1" vertex="1">
          <mxGeometry x="280" y="220" width="120" height="60" as="geometry" />
        </mxCell>
        <mxCell id="avvIacJ8UEr51rkEN6Sf-24" style="edgeStyle=orthogonalEdgeStyle;rounded=0;orthogonalLoop=1;jettySize=auto;html=1;entryX=1;entryY=0.5;entryDx=0;entryDy=0;" parent="1" source="avvIacJ8UEr51rkEN6Sf-7" target="avvIacJ8UEr51rkEN6Sf-3" edge="1">
          <mxGeometry relative="1" as="geometry" />
        </mxCell>
        <mxCell id="avvIacJ8UEr51rkEN6Sf-25" value="&lt;font face=&quot;Times New Roman&quot;&gt;NO&lt;/font&gt;" style="edgeLabel;html=1;align=center;verticalAlign=middle;resizable=0;points=[];" parent="avvIacJ8UEr51rkEN6Sf-24" vertex="1" connectable="0">
          <mxGeometry x="-0.7255" y="5" relative="1" as="geometry">
            <mxPoint y="5" as="offset" />
          </mxGeometry>
        </mxCell>
        <mxCell id="avvIacJ8UEr51rkEN6Sf-27" value="" style="edgeStyle=orthogonalEdgeStyle;rounded=0;orthogonalLoop=1;jettySize=auto;html=1;" parent="1" source="avvIacJ8UEr51rkEN6Sf-7" target="avvIacJ8UEr51rkEN6Sf-9" edge="1">
          <mxGeometry relative="1" as="geometry" />
        </mxCell>
        <mxCell id="avvIacJ8UEr51rkEN6Sf-28" value="&lt;font face=&quot;Times New Roman&quot;&gt;YES&lt;/font&gt;" style="edgeLabel;html=1;align=center;verticalAlign=middle;resizable=0;points=[];" parent="avvIacJ8UEr51rkEN6Sf-27" vertex="1" connectable="0">
          <mxGeometry x="-0.2333" relative="1" as="geometry">
            <mxPoint as="offset" />
          </mxGeometry>
        </mxCell>
        <mxCell id="avvIacJ8UEr51rkEN6Sf-7" value="&lt;span style=&quot;font-family: &amp;quot;Times New Roman&amp;quot;;&quot;&gt;Terminal state reached&lt;/span&gt;" style="rhombus;whiteSpace=wrap;html=1;fillColor=#fff2cc;strokeColor=#d6b656;" parent="1" vertex="1">
          <mxGeometry x="290" y="320" width="100" height="100" as="geometry" />
        </mxCell>
        <mxCell id="avvIacJ8UEr51rkEN6Sf-14" value="" style="edgeStyle=orthogonalEdgeStyle;rounded=0;orthogonalLoop=1;jettySize=auto;html=1;" parent="1" target="avvIacJ8UEr51rkEN6Sf-7" edge="1">
          <mxGeometry relative="1" as="geometry">
            <mxPoint x="340" y="280" as="sourcePoint" />
          </mxGeometry>
        </mxCell>
        <mxCell id="avvIacJ8UEr51rkEN6Sf-9" value="&lt;font face=&quot;Times New Roman&quot;&gt;End&lt;/font&gt;" style="ellipse;whiteSpace=wrap;html=1;aspect=fixed;fillColor=#d5e8d4;strokeColor=#82b366;" parent="1" vertex="1">
          <mxGeometry x="180" y="340" width="60" height="60" as="geometry" />
        </mxCell>
        <mxCell id="8S2gTdQgeX6atO9v7Wgu-3" value="" style="edgeStyle=orthogonalEdgeStyle;rounded=0;orthogonalLoop=1;jettySize=auto;html=1;" parent="1" source="8S2gTdQgeX6atO9v7Wgu-1" target="avvIacJ8UEr51rkEN6Sf-3" edge="1">
          <mxGeometry relative="1" as="geometry" />
        </mxCell>
        <mxCell id="8S2gTdQgeX6atO9v7Wgu-1" value="&lt;font face=&quot;Times New Roman&quot;&gt;Compute Cluster Center&lt;/font&gt;" style="rounded=1;whiteSpace=wrap;html=1;fillColor=#f8cecc;strokeColor=#b85450;" parent="1" vertex="1">
          <mxGeometry x="450" y="115" width="120" height="60" as="geometry" />
        </mxCell>
      </root>
    </mxGraphModel>
  </diagram>
</mxfile>
